<svg width="24" height="24" viewBox="0 0 24 24" fill="none" xmlns="http://www.w3.org/2000/svg">
<path d="M19 23C19.5304 23 20.0391 22.7893 20.4142 22.4142C20.7893 22.0391 21 21.5304 21 21L21 3C21 2.46957 20.7893 1.96086 20.4142 1.58579C20.0391 1.21071 19.5304 0.999999 19 0.999999L8 1C7.46957 1 6.96086 1.21071 6.58579 1.58579C6.21071 1.96086 6 2.46957 6 3L6 7L3 9L3 15L6 17L6 21C6 21.5304 6.21071 22.0391 6.58579 22.4142C6.96086 22.7893 7.46957 23 8 23L19 23Z" stroke="#08090E" stroke-width="2" stroke-linecap="round" stroke-linejoin="round"/>
<path d="M17 12C17 14.2091 15.2091 16 13 16C10.7909 16 9 14.2091 9 12C9 9.79086 10.7909 8 13 8C15.2091 8 17 9.79086 17 12Z" stroke="#08090E" stroke-width="2" stroke-linecap="round" stroke-linejoin="round"/>
</svg>
